<svg width="1024" height="1024" viewBox="0 0 1024 1024" fill="none" xmlns="http://www.w3.org/2000/svg">
<rect width="1024" height="1024" fill="#2D2D2D"/>
<path d="M649.188 681.908H578.01V652.592H649.188C656.728 652.592 662.874 646.446 662.874 638.906V508.969C662.874 500.077 670.119 492.832 679.011 492.832H701.336C707.82 492.832 710.249 488.122 711.009 486.074C711.748 484.046 712.952 478.871 708.01 474.668L520.413 315.437C515.555 311.297 508.479 311.297 503.622 315.437L316.024 474.668C311.082 478.871 312.265 484.046 313.025 486.074C313.764 488.101 316.193 492.832 322.699 492.832H345.024C353.916 492.832 361.16 500.077 361.16 508.969V638.906C361.16 646.446 367.306 652.592 374.846 652.592H415.589V596.135C415.589 560.462 443.469 530.533 479.058 528.02L480.156 527.936C501.319 526.436 522.778 526.436 543.942 527.957C579.488 530.512 607.326 560.441 607.326 596.072H578.01C578.01 575.732 562.106 558.646 541.829 557.188C522.039 555.752 501.995 555.752 482.205 557.167L481.106 557.252C460.809 558.688 444.884 575.775 444.884 596.135V681.908H374.825C351.106 681.908 331.823 662.624 331.823 638.906V522.148H322.678C305.886 522.148 291.292 511.968 285.483 496.191C279.696 480.413 284.216 463.2 297.037 452.343L484.634 293.091C500.496 279.636 523.518 279.636 539.38 293.091L726.977 452.322C739.776 463.2 744.317 480.413 738.53 496.169C732.743 511.947 718.148 522.127 701.336 522.127H692.19V638.884C692.19 662.603 672.907 681.887 649.188 681.887V681.908Z" fill="#DADADA"/>
<path d="M434.977 720.221C446.319 731.88 461.758 739.568 479.035 740.793L480.133 740.878C501.297 742.377 522.756 742.377 543.919 740.857C561.175 739.611 576.614 731.901 587.935 720.243H434.977V720.221Z" fill="#DADADA"/>
</svg>
